<?xml version="1.0" standalone="no"?>
<!DOCTYPE svg PUBLIC "-//W3C//DTD SVG 20010904//EN"
 "http://www.w3.org/TR/2001/REC-SVG-20010904/DTD/svg10.dtd">
<svg version="1.0" xmlns="http://www.w3.org/2000/svg"
 width="800.000000pt" height="800.000000pt" viewBox="0 0 800.000000 800.000000"
 preserveAspectRatio="xMidYMid meet">
<metadata>
Created by potrace 1.14, written by Peter Selinger 2001-2017
</metadata>
<g transform="translate(0.000000,800.000000) scale(0.100000,-0.100000)"
fill="#000000" stroke="none">
<path d="M4029 7705 c-7 -7 -162 -16 -354 -20 -93 -2 -208 -7 -255 -10 -95 -7
-156 -7 -375 -5 -149 1 -169 0 -229 -19 -17 -6 -44 -13 -61 -15 -16 -3 -46
-12 -65 -20 -19 -8 -75 -29 -125 -47 -49 -18 -112 -44 -140 -57 -27 -13 -79
-35 -115 -49 -36 -13 -85 -33 -110 -45 -25 -11 -67 -29 -95 -38 -27 -10 -112
-46 -189 -80 -102 -47 -147 -73 -175 -102 -20 -22 -57 -60 -83 -85 -26 -25
-50 -58 -53 -74 -8 -35 -13 -38 -67 -44 -24 -2 -52 -6 -63 -9 -11 -2 -23 -5
-27 -5 -4 -1 -13 -7 -20 -14 -7 -7 -39 -28 -70 -46 -99 -56 -163 -112 -213
-186 -19 -27 -54 -72 -79 -100 -25 -27 -46 -54 -46 -58 0 -4 -6 -15 -12 -23
-13 -15 -169 -182 -185 -196 -116 -109 -212 -212 -222 -236 -8 -18 -18 -32
-23 -32 -5 0 -18 -21 -30 -47 -37 -89 -61 -138 -78 -163 -10 -14 -21 -36 -24
-50 -4 -14 -16 -44 -26 -66 -11 -23 -22 -54 -26 -68 -3 -14 -10 -29 -15 -32
-5 -3 -9 -16 -9 -29 0 -13 -4 -26 -9 -30 -11 -6 -84 -232 -96 -295 -2 -13 -12
-34 -20 -47 -9 -14 -17 -45 -17 -71 0 -25 -10 -73 -22 -106 -12 -34 -23 -79
-25 -101 -1 -21 -5 -44 -10 -50 -19 -26 -30 -92 -21 -126 8 -26 6 -52 -8 -109
-11 -41 -20 -88 -21 -104 0 -16 -5 -34 -10 -40 -21 -27 -39 -114 -46 -226 -18
-261 -9 -571 20 -690 3 -14 7 -45 9 -70 2 -25 7 -61 10 -80 3 -19 8 -51 11
-70 2 -19 14 -82 25 -140 12 -58 23 -123 26 -145 3 -22 7 -46 10 -54 2 -8 7
-30 10 -50 6 -43 41 -196 53 -231 5 -14 13 -43 19 -65 44 -164 51 -184 99
-293 13 -29 23 -55 23 -58 0 -16 71 -152 140 -268 44 -74 80 -138 80 -142 0
-12 74 -106 134 -169 131 -140 135 -143 174 -150 53 -9 63 -18 67 -56 4 -60
18 -93 57 -143 22 -27 45 -63 53 -80 7 -17 58 -78 114 -136 56 -58 101 -107
101 -111 0 -8 45 -49 54 -49 5 0 18 -10 30 -23 11 -12 36 -33 55 -47 46 -32
97 -77 140 -123 19 -21 51 -48 71 -59 19 -12 37 -25 40 -28 18 -21 132 -90
150 -90 5 0 44 -24 88 -53 105 -72 232 -121 287 -110 40 7 51 9 91 12 48 3
119 88 140 167 9 31 10 32 43 20 28 -9 40 -22 64 -69 28 -58 28 -60 12 -94
-38 -79 2 -136 145 -207 75 -38 106 -50 160 -61 8 -2 42 -10 75 -18 68 -17
115 -23 310 -43 28 -3 137 -7 244 -9 107 -3 196 -7 198 -9 3 -3 24 4 47 13 23
10 54 19 69 19 15 0 40 5 57 12 16 7 40 9 52 6 46 -14 94 -17 135 -8 35 8 47
6 75 -11 20 -13 54 -22 88 -23 30 -2 65 -5 78 -8 12 -3 44 1 70 9 26 8 47 14
47 13 0 -1 34 9 93 27 7 3 14 3 16 2 1 -1 9 3 17 10 8 6 32 15 54 19 22 4 63
15 92 25 28 9 53 15 56 13 5 -6 107 19 177 42 24 9 63 17 86 20 23 2 94 24
157 49 64 25 121 45 129 45 7 0 25 6 39 14 14 7 73 27 131 44 58 17 127 43
153 57 27 14 53 25 59 25 6 0 27 14 46 30 19 17 52 40 73 52 20 12 37 25 37
29 0 4 9 6 19 4 10 -2 41 8 68 22 75 40 279 170 309 198 32 30 156 103 189
111 13 3 36 20 52 36 55 61 151 155 256 252 65 59 110 109 114 125 3 14 13 33
22 42 9 10 32 40 51 68 69 102 125 176 136 184 7 4 23 24 35 45 13 20 26 39
29 42 19 14 62 97 84 160 34 97 108 239 127 245 20 7 38 46 46 99 3 23 20 70
37 106 18 36 45 106 60 155 15 50 36 115 46 145 19 58 30 98 35 140 2 14 8 46
14 71 6 25 13 66 16 90 3 24 14 71 24 104 24 78 47 178 56 240 2 17 10 53 18
80 7 28 15 75 17 105 6 100 4 433 -4 550 -4 63 -7 122 -7 130 2 54 2 69 -4 99
-3 19 -21 52 -40 73 -34 37 -35 40 -29 101 18 168 -4 292 -77 439 -46 93 -41
82 -103 238 -25 63 -48 129 -52 145 -7 28 -80 174 -93 185 -3 3 -12 19 -20 35
-7 17 -17 37 -22 45 -5 8 -13 24 -16 35 -4 11 -20 45 -36 75 -17 30 -38 71
-49 90 -10 19 -24 44 -31 54 -61 95 -77 123 -77 136 0 8 -14 31 -31 50 -16 19
-37 49 -46 65 -9 17 -28 44 -43 60 -16 17 -54 59 -86 95 -32 36 -80 87 -106
114 -27 27 -48 52 -48 55 0 9 -97 81 -109 81 -5 0 -12 8 -15 18 -9 27 -188
191 -281 257 -44 32 -81 61 -83 66 -2 5 -10 9 -17 9 -7 0 -27 17 -44 38 -52
61 -62 70 -123 109 -33 21 -79 53 -104 71 -51 37 -145 86 -245 126 -37 15
-107 51 -155 80 -49 28 -109 58 -134 65 -25 8 -72 26 -105 42 -33 15 -73 31
-90 35 -16 4 -41 12 -55 19 -67 34 -168 67 -220 72 -19 2 -60 8 -90 13 -30 5
-71 12 -90 15 -73 11 -147 28 -205 47 -33 11 -80 21 -105 24 -25 3 -67 9 -93
15 -49 9 -270 13 -278 4z"/>
</g>
</svg>
